<svg xmlns="http://www.w3.org/2000/svg" viewBox="0 0 42.09 50.31"><g id="Layer_2" data-name="Layer 2"><g id="Layer_1-2" data-name="Layer 1"><path d="M23.5,43.71l-.78.5A3.68,3.68,0,0,1,23,45c0,.09-.23.27-.35.28a.59.59,0,0,1-.39-.26,4,4,0,0,1-.3-.67c-.09-.23-.15-.48-.27-.86a1,1,0,0,1-1.55.38l.16-.56.63.1.22-.52-1.84-.73a7.5,7.5,0,0,1-.67.71c-.09.07-.41.06-.45,0a3,3,0,0,1-.2-.77l-.41-.26.8-.92-.77-.39c0,.38,0,.7-.15.88s-.44,0-.75,0c.08-.44.13-.78.21-1.25A1.61,1.61,0,0,1,16,38l-.09.16a4.59,4.59,0,0,1-.42.66c-.05,0-.42-.08-.43-.16a2,2,0,0,1,0-.85,5.78,5.78,0,0,1,.35-.9l-1.07-.67c-.7.3-.87.92-.32,1.39l0,0a3.19,3.19,0,0,1,0,.69c-.06.29,0,.42.28.57.64.39.07.92.07,1.37s-.44.35-.8.19-.67,0-.79.87l.67-.4c.06.11.19.3.16.32a4.81,4.81,0,0,1-.56.42c.06.52,0,.57-1,1,.21,0,.5.09.63,0,.5-.43.87-.47,1.18.19,0,.07.16.09.29.15,0-.13,0-.2,0-.24-.19-.27-.59-.48-.14-.87a1.23,1.23,0,0,1,1.34-.09c.44.32.92.58,1.33.92A3.09,3.09,0,0,1,17.85,45c0,.29-.54.72-.92.87s-.68-.12-1-.26c-.07,0,0-.36,0-.54l-1.17-.34c.16.26.3.4.32.55a.72.72,0,0,1-.1.55c-.11.11-.36.08-.53,0-.61-.16-1.07-.48-1-1l-1.63,1a3.77,3.77,0,0,0-.54.34.7.7,0,0,1-1.2-.34.72.72,0,0,0-.77-.56A9,9,0,0,1,7.93,45a7.69,7.69,0,0,0-1.83-.22c-.93.07-1.07-.14-1.19-1a5.44,5.44,0,0,1,.27-3.26c.14-.29-.18-.79-.22-1.2-.08-.83-.09-1.68-.15-2.52,0-.51-.34-.75-.85-.83a6.37,6.37,0,0,1-1-.38c-.22-.14-.44-.45-.66,0-.33-.14-.68-.25-1-.42s-.52-.4-.81-.54a.64.64,0,0,1-.37-.95C.31,33.1.47,32.56.67,32c.38-1-.14-2-.2-3a9.23,9.23,0,0,1,0-1.39c0-.17.27-.31.42-.47.15.15.41.28.44.45.08.51-.13,1.12.68,1.24.11,0,.16.36.24.56.72-.42.8-.74.45-1.41a4.62,4.62,0,0,1-.38-1.08c-.13-.6-.28-1.15-1-1.18C1,26.11,1.37,26.9.31,27a10.17,10.17,0,0,1,.12-2C1,23,.73,21,.82,19.08a7.68,7.68,0,0,1,.43-2.44A21,21,0,0,0,2,14.59a5.92,5.92,0,0,1,.74-1.75c.53-.77,1.19-1.45,1.79-2.18A3.26,3.26,0,0,0,5,10.05c.21-.43.49-.67,1-.44a2.24,2.24,0,0,0,2.43-.38,1.84,1.84,0,0,1,1.25,0,3.42,3.42,0,0,0,4.1-1.57c.54-.83.93-1.77,1.4-2.65.13-.23.31-.42.46-.64.29-.45.6-.9.86-1.37.17-.32.34-.54.75-.49A3.76,3.76,0,0,0,20.81,1,6.07,6.07,0,0,1,21.9.2c.41-.31.81-.27,1.25.18-.21.2-.42.4-.61.61a8.48,8.48,0,0,0-1,1.12,1.47,1.47,0,0,0,.16,1.78,2,2,0,0,1,.47,1.74,15.44,15.44,0,0,0,.07,2.44,1.11,1.11,0,0,1-.36.86c-.78.5-.87,1.31-1.09,2.08-.3,1,0,1.1-1.14,1.15.06.27.24.59.16.83-.42,1.26.06,2.34.61,3.54a11.32,11.32,0,0,0-2.41,0A6.41,6.41,0,0,0,16,17.68a8.85,8.85,0,0,0,1.46-.57,3.36,3.36,0,0,1,2.16-.38,1,1,0,0,1,.63.56.79.79,0,0,1-.29.7,1.61,1.61,0,0,0-.8,1.49c0,.69-.38.81-.93.81-.23,0-.46,0-.68,0v.21l2.27-.13a1.37,1.37,0,0,1,.36-2.23c.11-.05.41.14.46.27.35,1.07,1.18,1,2,.88.59-.1,1.3-.36,1.74-.14a6,6,0,0,1,1.41,1.44,7.71,7.71,0,0,1-.39,1.44,5.93,5.93,0,0,1-1,1.65,2.46,2.46,0,0,0-.6,1.33c-.05.33-.06.73-.49.56-.25-.1-.42-.48-.55-.77s0-.38.07-.57l-.25-.07a4.84,4.84,0,0,0-.25.73c0,.11.12.26.1.37-.07.37-.19.74-.28,1.11a1.55,1.55,0,0,1-.46-.15c-.38-.28-.52-.64-.25-1a11.62,11.62,0,0,1-1.19-.34s0-.43.05-.46a6.72,6.72,0,0,1,1-.28c0-.13,0-.35,0-.61l-.4-.29a17.45,17.45,0,0,0-1.52,1.82c-.14.23,0,.73.15,1.07a3.26,3.26,0,0,1-.25,3.21c-.19.28,0,.85-.63.8a1.39,1.39,0,0,0-.81.33,1.66,1.66,0,0,0-.34.57c.43.09.61.2.19.58a4.84,4.84,0,0,1-1.13.9l-1.67.28c0,.39.12.56.62.35.11,0,.37,0,.39.09a.55.55,0,0,1-.08.45c-.29.3-.62.56-.91.91.48-.23.88-.36,1.18.23,0,.07.35.07.49,0,.3-.13.55-.36.84-.51.55-.29,1.1-.56,1.66-.81a.62.62,0,0,1,.5.06c.18.1.27.23.34-.09a.79.79,0,0,1,.55,0c.36.26.7.53,1,.82a2.18,2.18,0,0,0,.64-.28,5.4,5.4,0,0,0,.58-.85l1,1.86.5-.2c.32.44.3.4-.17.67a3.74,3.74,0,0,0-.73.75,12,12,0,0,1,1,1.18c.27.41.75.81.42,1.46l-.53-.15c.36,1.67.42,2.26-.63,3.51l.54.17c-.23.46-.44.86-.64,1.25ZM10,15.45a2.23,2.23,0,0,0,0,.27c0,.52.08,1-.48,1.47-.27.21-.91.83,0,1.43,0-.4,0-.73.09-1.05,0-.12.16-.31.2-.3a3.56,3.56,0,0,1,1.09.34c.12.07.06.46.05.71a2,2,0,0,1-.12.34c.68.73.93.76,1.14.12h-.64c0-.3,0-.56,0-.82s0-.76,0-1.13l-.92.15L10.3,17l-.19-.09.4-1.17-.48-.3c.09-.37.19-.74.26-1.12a.88.88,0,0,0,0-.53.76.76,0,0,1,.23-1c.32-.29.61-.55.86-.76l-1.07-.55c-.12-.05-.27-.15-.36-.11-.66.23-1.3.49-1.71.65,0,.72,0,1.23,0,1.74,0,.06-.26.1-.37.18s-.35.25-.33.33a10,10,0,0,0,.38,1.09l.55-.45-.3-.65,1.11-.49s-.06-.1,0-.17A2.7,2.7,0,0,1,9.49,13a.66.66,0,0,1,.36.11,3.28,3.28,0,0,1-.1.7c-.05.11-.1.22-.16.33-.11.27-.2.55-.29.79Zm-7.58.21c-.11.37-.24.85-.36,1.34a.61.61,0,0,0,0,.4c.51.83,1.59.67,2.24,1.25,0,0,.07-.07.1-.07h.72l.06.21.2-.6.7-.07-.72-.71c-.2.77-.8,1.06-1.14.64C3.64,17.29,3.07,16.48,2.46,15.66ZM15.79,11.2A1.17,1.17,0,0,0,14.28,11a4,4,0,0,1-1.15.3c-.34.07-.68.11-1,.16l0,.2c.42,0,.92-.13,1.23,0s.21.69.28,1c.73-.28.7-1.79,2.14-1.48ZM7.3,16.07,5.83,17l.32.64a1.57,1.57,0,0,1,1.92-.92ZM5,19.55a3.77,3.77,0,0,0,.67.33.77.77,0,0,0,.56,0c.22-.13.07-1.27-.15-1.49-.2.79-.2.79-1.07,1.2Zm14.23-7.33.12-.2c-.82-.21-1-1.64-2.1-1.26Zm-12.07.37c-.34.35-1.17-.33-1.32.58C6.36,13,7.05,13.44,7.15,12.59Zm15,22.94a1.82,1.82,0,0,0-.11-.4,1.05,1.05,0,0,0-.2-.27,1.39,1.39,0,0,0-.21.27c-.15.25-.3.5-.43.77a2.07,2.07,0,0,0-.08.42Zm-3.72-5.68c-.8-.56-1.31.12-1.91.11C17.19,30.58,17.71,29.83,18.44,29.85Zm-13-15.69c-1.15.91-1.15.91-1,1.09l1.14-.74Z" style="fill:#f9f8fa"/><path d="M35.57,43.68c-.16,0-.35,0-.46,0-.94-.58-2.07-.58-3-1.06-.21-.1-.33-.37-.5-.56.26,0,.51-.05.76-.05.1,0,.19.08.52.22-.71-.68-.11-.86.12-1.09-.28-.39-.52-.73-.77-1.06l-.13.11c.09.25.18.51.28.76l-.11.13-1.83-.94-.38.71-.75-.42L28.23,40l0,0a1.56,1.56,0,0,0-.8-1.41c-.11-.05-.13-.3-.2-.51l-.45,0c-.34-.95.64-.71.94-1-.11-.58-.2-1.09-.28-1.5a4,4,0,0,1-.93-.21.62.62,0,0,1,0-.53c.14-.14.41-.14.79-.25a4.12,4.12,0,0,0-.58-.87,4.19,4.19,0,0,0-.88-.4,5.67,5.67,0,0,1-.68-.5l.68-.41a1.8,1.8,0,0,0-.51-.17c-.39,0-.55-.29-.44-.55s.44-.29.69-.32.4.15.61.22.31.11.35.06c.45-.49,1-.2,1.47-.18a2,2,0,0,0,1-.36c.08,0,0-.45-.08-.65s0-.44.27-.48c.5-.07,1.19,0,1.16-.73s-.77-.46-1.19-.65a4.5,4.5,0,0,1-1.1-.85c-.07-.06,0-.4.07-.46a.58.58,0,0,1,.54,0,2.57,2.57,0,0,0,2.3.61c.11,0,.27.16.4.19a2.56,2.56,0,0,0,.62,0c.3,0,.69-.19.87-.06.4.29.09.71-.12,1s-.5.17-.75.25c.1.25.4.69.34,1.05s-.57.49-.89.73l.11.17,1.79-.82.31.39a.74.74,0,0,0,.35-1.16,5.48,5.48,0,0,1-.31-1.14c.38.17.9.25,1.08.54a7.62,7.62,0,0,1,.56,1.69v1.1a1,1,0,0,0-1,1.2c.13-.15.25-.31.4-.5l.39.31.34.27a3.15,3.15,0,0,1,.15-.71,1.33,1.33,0,0,0-.32-1.65c.35-.95-.16-1.74-.45-2.62l-1.16.37c-.61-.38-.64-.71-.06-1.1.92-.62,1.86-1.21,2.77-1.85a1.13,1.13,0,0,1,1.52.06,1.47,1.47,0,0,0,1,.33,2.43,2.43,0,0,1,1.32.69c.26.24.12.65-.2.9-.61.49-.45,1.12-.3,1.75s.17,1.07.29,1.61.35,1.28.57,1.91c.17.44.59.84.18,1.32a1,1,0,0,1-1.56.17c.07-.32.15-.71.25-1.2-.74.5-1.45.95-2.13,1.44a1.36,1.36,0,0,0-.64,1.49c.14.51.62.62,1.08.72a2.61,2.61,0,0,1,.67.27,1.31,1.31,0,0,1,.62,1.76l0,0c-.18.39-.78.6-1.22.83-.21.11-.52,0-.76.12-.58.2-.58.22-.88,1.21l.65,1-.79.19.38.46.14.26a2.06,2.06,0,0,1-.34.51,4.25,4.25,0,0,1-.74.44Zm-2.7-10.92.2.13.73-1.48-.14-.21c-.36.79-.67.34-.95.1l-.59.55L33.2,32C33,32.37,33,32.57,32.87,32.76Z" style="fill:#f9f8fa"/><path d="M36.62,42.75c0-.08-.09-.16-.13-.25,0-.33.12-.47.42-.39s.76.31,1.14.4a5.36,5.36,0,0,0,1,.12c.54,0,1,.19,1.17.77.1.38,0,.74-.5.68-.3,0-.6-.11-.9-.14a1.33,1.33,0,0,0-1.4.57,5,5,0,0,1-.79.82c.13.27.23.54-.22,1-.78.81-1.68,1.69-1.13,3.06a2.57,2.57,0,0,1,0,.92c-.72.09-1-.15-1-.83s-.11-1.6-.18-2.41c0-.08-.1-.17-.26-.23a9.68,9.68,0,0,1,.08,1.51c0,.2-.33.39-.54.54a.53.53,0,0,1-.39,0,3,3,0,0,0-2.63.55.93.93,0,0,1-.86-.17,5.74,5.74,0,0,0-3.17-1.86c-.76-.18-.82-.59-.37-1.49l1,.29.16-.28a3.31,3.31,0,0,1-.58-.45c-.15-.18-.38-.49-.33-.69a.94.94,0,0,1,.7-.73,2.31,2.31,0,0,1,2.2.1c.09-.13.17-.36.31-.43a7.19,7.19,0,0,1,1.33-.52.74.74,0,0,1,.64.18.63.63,0,0,1-.06.59c-.09.13-.36.12-.54.18a5.54,5.54,0,0,0-.58.17l-.92.38,1.56,1.2c.36-.25.55-.4.75-.53,0,0,.1,0,.1,0,.31-1.17.76-.36,1.22,0,0-.58-1-1-.29-1.56.32-.29,1.34.06,1.55.43l1.44-.5,0,0c.21,0,.44.14.63.08.51-.13,1-.33,1.43-.48l-.48-.61Z" style="fill:#f9f8fa"/><path d="M35.5,17.4c.4.37.7.68,1,1s.67.5,1,.74c.13.08.32.12.38.24a2.25,2.25,0,0,0,1.34,1c.21.07.22.87.21,1.34a3,3,0,0,1-.26,1.05c-.08.18-.31.41-.47.4A5.52,5.52,0,0,1,37.46,23a4.53,4.53,0,0,1-.59-.28c-2.54-.93-2-.92-2-3.14A8.23,8.23,0,0,1,35.5,17.4Z" style="fill:#f9f8fa"/><path d="M23.48,43.73a2.86,2.86,0,0,0,1.18-1.89,2.2,2.2,0,0,1,.22-.61,5.79,5.79,0,0,1,.66-.65c.12.32.4.67.34,1-.19.8-.53,1.56-.78,2.35-.37,1.11-.74,2.22-1,3.35-.13.49-.3.89-.82.83s-.4-.56-.54-.91c-.42-1,.26-1.43.87-2l-.43-.52.37-1Z" style="fill:#f9f8fa"/><path d="M23.35,29.51a11.82,11.82,0,0,0-.23,1.43c0,.43-.15.6-.59.58s-.86,0-.86-.55-.24-1.12.38-1.51a.74.74,0,0,0-.14-.59,1.1,1.1,0,0,1-.15-1.51c.27-.23.55-.08.69.27a10.58,10.58,0,0,0,.6,1c.16.29.28.61.41.91Z" style="fill:#f9f8fa"/><path d="M18.62,43.46c.74.44,1.36.81,2,1.16.14.08.38,0,.51.11a2.45,2.45,0,0,1,.71.65c.07.11-.17.41-.28.61,0,0-.11.06-.16.1-.26.18-.55.54-.74.49a2,2,0,0,1-.86-.67C19.23,45.24,18.49,44.65,18.62,43.46Z" style="fill:#f9f8fa"/><path d="M27.32,6.62c.14.11.44.25.43.4a.77.77,0,0,1-.38.53,1.86,1.86,0,0,0-.84,1.29c0,.13,0,.35-.09.4a.57.57,0,0,1-.48,0c-.09,0-.08-.26-.15-.38a1.82,1.82,0,0,0-.31-.31l-.75-.67c.29-.27.52-.65.86-.8A8.48,8.48,0,0,1,27.32,6.62Z" style="fill:#f9f8fa"/><path d="M3.16,41.05c.06-.3.11-.6.18-.89s.05-.82.63-.67.77.42.54,1a9,9,0,0,1-.35,1.15c-.09.18-.41.25-.63.38-.1-.25-.22-.49-.32-.74a.57.57,0,0,1,0-.26Z" style="fill:#f9f8fa"/><path d="M2.27,35.54c.22-.45.43-.14.65,0,0,.08,0,.22.06.24.93.4.46,1.3.77,1.93-.92.17-1.36-.25-1.47-1.37A7.15,7.15,0,0,1,2.27,35.54Z" style="fill:#f9f8fa"/><path d="M29.8,16.17c.62-.17,1-.32,1.48-.4a1.16,1.16,0,0,1,.52.14c-.06.16-.11.32-.18.48s-.09.09-.14.14c-.21.27-.24.87-.73.64S30.14,16.54,29.8,16.17Z" style="fill:#f9f8fa"/><path d="M26.36,28.65a1.57,1.57,0,0,1,1.71.83A.56.56,0,0,1,28,30a.53.53,0,0,1-.48.05C26.65,29.67,26.35,29.31,26.36,28.65Z" style="fill:#f9f8fa"/><path d="M28.23,40a5.56,5.56,0,0,1-.39,1c-.1.15-.41.17-.63.24a2.82,2.82,0,0,1-.09-.63c0-.11.21-.2.35-.33,0-.09-.19-.22-.17-.33a3,3,0,0,1,.2-.64c.18.14.38.25.54.39a1.49,1.49,0,0,1,.2.31Z" style="fill:#f9f8fa"/><path d="M41,33.09l.64-.74a2.45,2.45,0,0,1,.46.69c.07.29,0,.68-.46.59C41.41,33.59,41.25,33.34,41,33.09Z" style="fill:#f9f8fa"/><path d="M18.93,31.46a6.57,6.57,0,0,1,.82-.68c.11-.06.49.1.49.13,0,.27,0,.68-.19.76a3.09,3.09,0,0,1-1,.09Z" style="fill:#f9f8fa"/><path d="M4.06,39.05c-.12-.2-.33-.41-.32-.61s.24-.38.41-.45.46.2.44.26a4,4,0,0,1-.31.78Z" style="fill:#f9f8fa"/><path d="M21,27.69c.2.34.41.54.37.67s-.29.32-.45.48c-.14-.17-.37-.32-.4-.51S20.71,28,21,27.69Z" style="fill:#f9f8fa"/><path d="M14,37.66a1.53,1.53,0,0,1,.31-.43.37.37,0,0,1,.35.07.53.53,0,0,1,.07.45c-.06.11-.29.12-.44.1s-.21-.13-.31-.21Z" style="fill:#f9f8fa"/><path d="M19.05,32.89l-.38.61c-.12-.13-.36-.32-.33-.38a1.91,1.91,0,0,1,.44-.46Z" style="fill:#f9f8fa"/><path d="M19.34,12l-.12.21" style="fill:#f9f8fa"/><path d="M17.24,10.75" style="fill:#f9f8fa"/><rect x="33.14" y="16.94" width="8.44" height="7.38" style="fill:none;stroke:#f9f8fa;stroke-miterlimit:10;stroke-width:0.25px"/></g></g></svg>