<svg xmlns="http://www.w3.org/2000/svg" xmlns:xlink="http://www.w3.org/1999/xlink" viewBox="0 0 878.79 131.49"><defs><linearGradient id="linear-gradient" x1="13.06" y1="595.98" x2="13.06" y2="595.54" gradientTransform="matrix(1922, 0, 0, -163, -24659.85, 97145.27)" gradientUnits="userSpaceOnUse"><stop offset="0" stop-color="#006d3b" stop-opacity="0.8"/><stop offset="0.36" stop-color="#107d38" stop-opacity="0.8"/><stop offset="0.67" stop-color="#238d37" stop-opacity="0.8"/><stop offset="1" stop-color="#4fae35" stop-opacity="0.8"/></linearGradient><radialGradient id="radial-gradient" cx="7.03" cy="590.78" r="0.28" gradientTransform="translate(-64.59 -15297.99) scale(26.06 26.06)" gradientUnits="userSpaceOnUse"><stop offset="0.06" stop-color="#f0df54"/><stop offset="0.48" stop-color="#f1bc21"/></radialGradient><radialGradient id="radial-gradient-2" cx="6.2" cy="590.36" r="0.46" gradientTransform="matrix(26.58, 6.02, -5.58, 24.7, 3247.92, -14488.19)" gradientUnits="userSpaceOnUse"><stop offset="0.28" stop-color="#f0df54"/><stop offset="0.48" stop-color="#f1bc21"/></radialGradient><radialGradient id="radial-gradient-3" cx="1.47" cy="589.01" r="0.35" gradientTransform="translate(97.71 -8078.18) scale(13.83 13.83)" gradientUnits="userSpaceOnUse"><stop offset="0.12" stop-color="#f0df54"/><stop offset="0.77" stop-color="#f1bc21"/></radialGradient><radialGradient id="radial-gradient-4" cx="2.35" cy="592.22" r="0.28" gradientTransform="translate(242.46 -23856.34) scale(40.45 40.46)" xlink:href="#radial-gradient"/><radialGradient id="radial-gradient-5" cx="2.14" cy="592.87" r="0.46" gradientTransform="matrix(41.26, 9.36, -8.67, 38.41, 5383.98, -22634.08)" xlink:href="#radial-gradient-2"/><radialGradient id="radial-gradient-6" cx="-7.35" cy="591.72" r="0.35" gradientTransform="translate(494.38 -12644.64) scale(21.47 21.47)" xlink:href="#radial-gradient-3"/><radialGradient id="radial-gradient-7" cx="-15.18" cy="592.53" r="0.28" gradientTransform="translate(1223.39 -19435.21) scale(32.93 32.93)" xlink:href="#radial-gradient"/><radialGradient id="radial-gradient-8" cx="-14.15" cy="597.17" r="0.46" gradientTransform="matrix(33.59, 7.62, -7.06, 31.27, 5408.8, -18444.03)" xlink:href="#radial-gradient-2"/><radialGradient id="radial-gradient-9" cx="-40.4" cy="592.31" r="0.35" gradientTransform="translate(1428.55 -10308.71) scale(17.47 17.48)" xlink:href="#radial-gradient-3"/></defs><g id="Layer_2" data-name="Layer 2"><g id="Layer_1-2" data-name="Layer 1"><g id="Top_design_Web" data-name="Top design Web"><g id="Top-design"><path id="Path_157" data-name="Path 157" d="M11.83,0H854.24V71.44H11.83Z" style="fill:url(#linear-gradient)"/></g><g id="Group_440" data-name="Group 440"><ellipse id="Ellipse_297" data-name="Ellipse 297" cx="729.33" cy="83.28" rx="43.39" ry="36.38" style="fill:#faf9fb"/><ellipse id="Ellipse_298" data-name="Ellipse 298" cx="606.82" cy="88.97" rx="44.93" ry="34.63" style="fill:#faf9fb"/><ellipse id="Ellipse_299" data-name="Ellipse 299" cx="669.28" cy="97.3" rx="34.63" ry="33.31" style="fill:#faf9fb"/><ellipse id="Ellipse_300" data-name="Ellipse 300" cx="813.92" cy="97.3" rx="64.87" ry="33.31" style="fill:#faf9fb"/><ellipse id="Ellipse_293" data-name="Ellipse 293" cx="446.63" cy="83.28" rx="43.39" ry="36.38" style="fill:#faf9fb"/><ellipse id="Ellipse_295" data-name="Ellipse 295" cx="386.14" cy="93.36" rx="34.63" ry="33.31" style="fill:#faf9fb"/><ellipse id="Ellipse_296" data-name="Ellipse 296" cx="522.01" cy="79.33" rx="49.97" ry="33.31" style="fill:#faf9fb"/><g id="Group_439" data-name="Group 439"><ellipse id="Ellipse_287" data-name="Ellipse 287" cx="166.11" cy="85.47" rx="43.39" ry="36.38" style="fill:#faf9fb"/><ellipse id="Ellipse_288" data-name="Ellipse 288" cx="44.93" cy="96.86" rx="44.93" ry="34.63" style="fill:#faf9fb"/><ellipse id="Ellipse_289" data-name="Ellipse 289" cx="105.63" cy="95.55" rx="34.63" ry="33.31" style="fill:#faf9fb"/><ellipse id="Ellipse_290" data-name="Ellipse 290" cx="241.5" cy="81.52" rx="49.97" ry="33.31" style="fill:#faf9fb"/><g id="arla-blomst"><ellipse id="Ellipse_2" data-name="Ellipse 2" cx="122.64" cy="72.71" rx="13.94" ry="14.42" style="fill:none"/><path id="Path_166" data-name="Path 166" d="M114.48,64.47a12.47,12.47,0,0,0,2.72,3,5.59,5.59,0,0,1-.79-2.63,3.28,3.28,0,0,1,2.37-2.89,6,6,0,0,1,4.6-.09c1.53.62,1.89,1,2.32,2.33a6.66,6.66,0,0,1-.26,3.94c-.35.88-1.45,2.63-1.8,2.59s-.79-.88-1.49-1a1.76,1.76,0,0,0-1.75.48,2.22,2.22,0,0,0-.7,1.62s-.88,1.1-3.77,1.1c-2.28,0-4.08-2.63-3.86-4.56C112.29,66.67,113,65,114.48,64.47Z" style="fill:url(#radial-gradient)"/><path id="Path_167" data-name="Path 167" d="M123.16,72.36a9.92,9.92,0,0,0,2.54-3.07c.75-1.31,1.49-3.72,2.72-3.72,1.05,0,2.63,1.53,3.2,3.16a4.38,4.38,0,0,1,0,3.11,4,4,0,0,1-2.89,1.71,4.74,4.74,0,0,0,2.45.17c.35-.09.13,1.71-1.18,2.89a3.53,3.53,0,0,1-2.67.88,4.86,4.86,0,0,1-2.59-1.23,5.89,5.89,0,0,1-1.71-3.2A.83.83,0,0,1,123.16,72.36Z" style="fill:url(#radial-gradient-2)"/><path id="Path_168" data-name="Path 168" d="M123.16,72.36a9.92,9.92,0,0,0,2.54-3.07c.75-1.31,1.49-3.72,2.72-3.72" style="fill:none"/><path id="Path_169" data-name="Path 169" d="M117.77,73.28c.75-.3,3.29-1,4.08-.39a3.28,3.28,0,0,1,.65,3.33,3.32,3.32,0,0,1-2,2.37,5.11,5.11,0,0,1-3.68-.57c-.44-.27-1.8-1-2.06-2.11S116.41,73.81,117.77,73.28Z" style="fill:url(#radial-gradient-3)"/></g><ellipse id="Ellipse_294" data-name="Ellipse 294" cx="325.44" cy="92.48" rx="44.93" ry="34.63" style="fill:#faf9fb"/><g id="arla-blomst-2"><ellipse id="Ellipse_2-2" data-name="Ellipse 2-2" cx="343.73" cy="67.81" rx="21.64" ry="22.39" style="fill:none"/><path id="Path_166-2" data-name="Path 166-2" d="M331.07,55s2.31,3.47,4.22,4.63c-1-2.25-1.16-2.31-1.23-4.08s1.37-3.61,3.68-4.5a9.32,9.32,0,0,1,7.14-.13c2.38,1,2.93,1.5,3.61,3.6a10.42,10.42,0,0,1-.41,6.13c-.54,1.36-2.25,4.08-2.79,4s-1.22-1.36-2.31-1.63a2.75,2.75,0,0,0-2.72.75,3.39,3.39,0,0,0-1.09,2.52s-1.36,1.7-5.85,1.7c-3.54,0-6.33-4.08-6-7.08C327.67,58.42,328.69,55.84,331.07,55Z" style="fill:url(#radial-gradient-4)"/><path id="Path_167-2" data-name="Path 167-2" d="M344.54,67.27a15.77,15.77,0,0,0,3.95-4.76c1.15-2,2.31-5.79,4.22-5.79,1.63,0,4.08,2.38,5,4.9a6.81,6.81,0,0,1,0,4.83c-1.22,2.32-4.49,2.66-4.49,2.66a7.27,7.27,0,0,0,3.81.27c.55-.14.21,2.65-1.83,4.49A5.52,5.52,0,0,1,351,75.23a7.56,7.56,0,0,1-4-1.91,9.13,9.13,0,0,1-2.65-5A1.28,1.28,0,0,1,344.54,67.27Z" style="fill:url(#radial-gradient-5)"/><path id="Path_168-2" data-name="Path 168-2" d="M344.54,67.27a15.77,15.77,0,0,0,3.95-4.76c1.15-2,2.31-5.79,4.22-5.79" style="fill:none"/><path id="Path_169-2" data-name="Path 169-2" d="M336.17,68.7c1.16-.48,5.11-1.5,6.33-.61.89.61,1.7,2.78,1,5.17a5.14,5.14,0,0,1-3.13,3.67,7.91,7.91,0,0,1-5.71-.88c-.68-.41-2.79-1.57-3.2-3.27C331.21,71.28,334.06,69.52,336.17,68.7Z" style="fill:url(#radial-gradient-6)"/></g></g><g id="arla-blomst-3"><ellipse id="Ellipse_2-3" data-name="Ellipse 2-3" cx="728.47" cy="47" rx="17.61" ry="18.22" style="fill:none"/><path id="Path_166-3" data-name="Path 166-3" d="M718.17,36.58a15.86,15.86,0,0,0,3.43,3.77c-.77-1.83-.94-1.89-1-3.32s1.1-2.94,3-3.66a7.52,7.52,0,0,1,5.81-.11c1.94.77,2.39,1.22,2.94,2.94a8.41,8.41,0,0,1-.33,5c-.45,1.11-1.83,3.32-2.27,3.27s-1-1.11-1.89-1.33a2.22,2.22,0,0,0-2.21.61,2.79,2.79,0,0,0-.89,2.05s-1.11,1.38-4.76,1.38c-2.88,0-5.15-3.32-4.88-5.76C715.4,39.35,716.23,37.25,718.17,36.58Z" style="fill:url(#radial-gradient-7)"/><path id="Path_167-3" data-name="Path 167-3" d="M729.14,46.55a12.68,12.68,0,0,0,3.21-3.88c.94-1.66,1.88-4.7,3.43-4.7,1.33,0,3.33,1.94,4.05,4a5.61,5.61,0,0,1,0,3.93c-1,1.88-3.66,2.16-3.66,2.16a5.85,5.85,0,0,0,3.1.22c.45-.11.17,2.16-1.49,3.66A4.47,4.47,0,0,1,734.4,53a6.25,6.25,0,0,1-3.27-1.55,7.5,7.5,0,0,1-2.16-4A1,1,0,0,1,729.14,46.55Z" style="fill:url(#radial-gradient-8)"/><path id="Path_168-3" data-name="Path 168-3" d="M729.14,46.55a12.68,12.68,0,0,0,3.21-3.88c.94-1.66,1.88-4.7,3.43-4.7" style="fill:none"/><path id="Path_169-3" data-name="Path 169-3" d="M722.32,47.72c.95-.39,4.16-1.22,5.15-.5.73.5,1.39,2.27.84,4.2a4.22,4.22,0,0,1-2.55,3,6.47,6.47,0,0,1-4.65-.72c-.56-.34-2.27-1.28-2.61-2.66C718.28,49.82,720.61,48.38,722.32,47.72Z" style="fill:url(#radial-gradient-9)"/></g></g></g></g></g></svg>