<svg id="Layer_1" data-name="Layer 1" xmlns="http://www.w3.org/2000/svg" viewBox="0 0 45.17 49.97"><path d="M8.88,41.41v1.15a1.9,1.9,0,0,0,1.92,1.88H36.38v3.77a1.91,1.91,0,0,1-1.91,1.89h-32A1.9,1.9,0,0,1,.56,48.21l0-39.43A1.9,1.9,0,0,1,2.44,6.9l6.42,0V41.41Z" transform="translate(-0.03 -0.63)" style="fill:none;stroke:#f9f8fa;stroke-miterlimit:10"/><path d="M8.88,41.41V6.86l10.59-.07a3.18,3.18,0,0,1,1.49.36l.72.6L36.14,22a.83.83,0,0,1,.24.58V44.44H10.8a1.9,1.9,0,0,1-1.92-1.88Z" transform="translate(-0.03 -0.63)" style="fill:none;stroke:#f9f8fa;stroke-miterlimit:10"/><path d="M44.58,16.52a.76.76,0,0,1,.12.42V42.55a1.89,1.89,0,0,1-1.91,1.89H36.38V22.6a.83.83,0,0,0-.24-.58L21.66,7.75l-.72-.6a3.18,3.18,0,0,0-1.49-.36L8.86,6.86V3.13a1.89,1.89,0,0,1,1.91-1.89l17-.11a3,3,0,0,1,1.49.37l.72.59L44.46,16.36A.61.61,0,0,1,44.58,16.52Z" transform="translate(-0.03 -0.63)" style="fill:none;stroke:#f9f8fa;stroke-miterlimit:10"/><line x1="44.55" y1="15.89" x2="44.67" y2="15.89" style="fill:none;stroke:#f9f8fa;stroke-miterlimit:10"/><line x1="13.73" y1="22.85" x2="32.96" y2="22.9" style="fill:none;stroke:#f9f8fa;stroke-miterlimit:10"/><path d="M44.58,16.52H31.81a1.9,1.9,0,0,1-1.92-1.89V2.09" transform="translate(-0.03 -0.63)" style="fill:none;stroke:#f9f8fa;stroke-miterlimit:10"/><line x1="13.56" y1="29.07" x2="29.69" y2="29.07" style="fill:none;stroke:#f9f8fa;stroke-miterlimit:10"/><line x1="13.39" y1="35.97" x2="27.85" y2="35.97" style="fill:none;stroke:#f9f8fa;stroke-miterlimit:10"/><line x1="5.24" y1="40.78" x2="8.85" y2="40.78" style="fill:none;stroke:#f9f8fa;stroke-miterlimit:10"/><line x1="5.24" y1="33.77" x2="8.84" y2="33.77" style="fill:none;stroke:#f9f8fa;stroke-miterlimit:10"/><line x1="5.35" y1="27.6" x2="8.84" y2="27.6" style="fill:none;stroke:#f9f8fa;stroke-miterlimit:10"/></svg>