<svg id="Layer_1" data-name="Layer 1" xmlns="http://www.w3.org/2000/svg" viewBox="0 0 234.78 286.94"><path d="M46.24,128.05A4.63,4.63,0,0,1,43,133.28a6.84,6.84,0,0,1-1.87.22H27.85c-4.63,0-9.26,0-13.89,0a4.68,4.68,0,0,1-4.54-3.81,4.74,4.74,0,0,1,3-5.28,4.14,4.14,0,0,1,1.42-.29c9.35,0,18.7,0,28.06,0A4.43,4.43,0,0,1,46.24,128.05Z" transform="translate(-8.85 -11.52)" style="fill:#f5f5f5"/><path d="M194.45,119c5.13,24.8-1.49,46.55-19.42,64.55-7.51,7.53-13.05,16.07-16,26.29a57.26,57.26,0,0,0-2.22,15.57,101.27,101.27,0,0,1-.29,11.83,17,17,0,0,1-17,14.77c-4.49,0-9,0-13.46,0-4.34,0-8.69,0-13,0a17.26,17.26,0,0,1-17.44-17.3c-.06-4,0-8-.19-12a56.67,56.67,0,0,0-13-33.48c-2.91-3.59-6.36-6.74-9.36-10.26a68.35,68.35,0,0,1-16.37-38.34C53.16,104.93,77.93,71.68,113,65.07,150.39,58,186.77,81.88,194.45,119Z" transform="translate(-8.85 -11.52)" style="fill:#f9f4f4"/><path d="M243.13,128.76a4.72,4.72,0,0,1-4.89,4.73c-4.53,0-9.07,0-13.6,0s-9.26,0-13.89,0a4.51,4.51,0,0,1-4.41-3.39,4.46,4.46,0,0,1,1.79-5.13,5.42,5.42,0,0,1,2.71-.86q13.74-.09,27.48,0A4.7,4.7,0,0,1,243.13,128.76Z" transform="translate(-8.85 -11.52)" style="fill:#f5f5f5"/><path d="M209.84,47.7a4.54,4.54,0,0,1-1,5.24c-3.12,3.15-6.27,6.27-9.4,9.41s-6.4,6.41-9.61,9.6c-2.26,2.25-5.1,2.37-7.11.32s-1.81-4.81.37-7C189.33,59,195.58,52.7,201.92,46.5a16.19,16.19,0,0,1,3.37-2A5.51,5.51,0,0,1,209.84,47.7Z" transform="translate(-8.85 -11.52)" style="fill:#f5f5f5"/><path d="M208.71,204.52a4.73,4.73,0,0,1,.19,6.8,4.67,4.67,0,0,1-6.9-.11q-9.63-9.59-19.22-19.22a4.54,4.54,0,0,1-1-5.24,5.53,5.53,0,0,1,4.53-3.21,13.87,13.87,0,0,1,3.18,1.8C195.92,191.68,202.32,198.1,208.71,204.52Z" transform="translate(-8.85 -11.52)" style="fill:#f5f5f5"/><path d="M146.7,273.4a4.71,4.71,0,1,1,0,9.4c-6.82,0-13.65,0-20.47,0s-13.84,0-20.76,0a4.61,4.61,0,0,1-4.63-4.05,4.67,4.67,0,0,1,3-5,5.55,5.55,0,0,1,2-.33Q126.23,273.37,146.7,273.4Z" transform="translate(-8.85 -11.52)" style="fill:#f5f5f5"/><path d="M151.05,260.83a4.54,4.54,0,0,1-.32,4.95,4.79,4.79,0,0,1-4.16,2q-20.32,0-40.64,0a4.77,4.77,0,1,1,0-9.51c6.77,0,13.54,0,20.31,0s13.45,0,20.18,0A4.76,4.76,0,0,1,151.05,260.83Z" transform="translate(-8.85 -11.52)" style="fill:#f5f5f5"/><path d="M141.31,293a4.75,4.75,0,0,1-4.79,4.86c-6.87.11-13.74.12-20.61,0a4.52,4.52,0,0,1-4.68-5c.09-2.62,2.19-4.43,5.15-4.43h19.73C139.08,288.43,141.22,290.32,141.31,293Z" transform="translate(-8.85 -11.52)" style="fill:#f5f5f5"/><path d="M131,17q.06,13.46,0,26.89a4.64,4.64,0,0,1-4.93,5c-2.72-.06-4.57-2.13-4.57-5.15,0-4.44,0-8.87,0-13.3s0-8.87,0-13.3c0-3,1.88-5.07,4.62-5.12A4.69,4.69,0,0,1,131,17Z" transform="translate(-8.85 -11.52)" style="fill:#f5f5f5"/><path d="M70.58,186.45a4.52,4.52,0,0,1-.31,4.84,5.46,5.46,0,0,1-.65.79Q60,201.7,50.38,211.29a4.52,4.52,0,0,1-5.36,1,4.68,4.68,0,0,1-1.61-7.45c1-1.18,2.18-2.23,3.28-3.34,5.31-5.3,10.59-10.64,16-15.88a13.36,13.36,0,0,1,2.89-1.82C68.25,183.9,69.7,184.75,70.58,186.45Z" transform="translate(-8.85 -11.52)" style="fill:#f5f5f5"/><path d="M71.15,68.32c-.1,2.54-.92,4-2.56,4.82a4.52,4.52,0,0,1-5-.32,3.24,3.24,0,0,1-.46-.37C56.59,65.88,50,59.35,43.46,52.69A4.62,4.62,0,0,1,45.68,45a4.45,4.45,0,0,1,4.59,1.16c6.53,6.49,13.06,13,19.51,19.56A8.55,8.55,0,0,1,71.15,68.32Z" transform="translate(-8.85 -11.52)" style="fill:#f5f5f5"/><path d="M126.29,258.27c6.73,0,13.45,0,20.18,0a4.76,4.76,0,0,1,4.58,2.55,4.54,4.54,0,0,1-.32,4.95,4.79,4.79,0,0,1-4.16,2q-20.32,0-40.64,0a4.77,4.77,0,1,1,0-9.51C112.75,258.26,119.52,258.27,126.29,258.27Z" transform="translate(-8.85 -11.52)" style="fill:none;stroke:#f9f4f4;stroke-miterlimit:10"/><path d="M126.21,282.8c-6.92,0-13.84,0-20.76,0a4.61,4.61,0,0,1-4.63-4.05,4.67,4.67,0,0,1,3-5,5.55,5.55,0,0,1,2-.33q20.47,0,40.94,0a4.71,4.71,0,1,1,0,9.4C139.86,282.82,133,282.8,126.21,282.8Z" transform="translate(-8.85 -11.52)" style="fill:none;stroke:#f9f4f4;stroke-miterlimit:10"/><path d="M65.54,183.84c2.71.06,4.16.91,5,2.61a4.52,4.52,0,0,1-.31,4.84,5.46,5.46,0,0,1-.65.79Q60,201.7,50.38,211.29a4.52,4.52,0,0,1-5.36,1,4.68,4.68,0,0,1-1.61-7.45c1-1.18,2.18-2.23,3.28-3.34,5.31-5.3,10.59-10.64,16-15.88A13.36,13.36,0,0,1,65.54,183.84Z" transform="translate(-8.85 -11.52)" style="fill:none;stroke:#f9f4f4;stroke-miterlimit:10"/><path d="M121.49,30.44c0-4.44,0-8.87,0-13.3,0-3,1.88-5.07,4.62-5.12A4.69,4.69,0,0,1,131,17q.06,13.46,0,26.89a4.64,4.64,0,0,1-4.93,5c-2.72-.06-4.57-2.13-4.57-5.15C121.48,39.3,121.49,34.87,121.49,30.44Z" transform="translate(-8.85 -11.52)" style="fill:none;stroke:#f9f4f4;stroke-miterlimit:10"/><path d="M71.15,68.32c-.1,2.54-.92,4-2.56,4.82a4.52,4.52,0,0,1-5-.32,3.24,3.24,0,0,1-.46-.37C56.59,65.88,50,59.35,43.46,52.69A4.62,4.62,0,0,1,45.68,45a4.45,4.45,0,0,1,4.59,1.16c6.53,6.49,13.06,13,19.51,19.56A8.55,8.55,0,0,1,71.15,68.32Z" transform="translate(-8.85 -11.52)" style="fill:none;stroke:#f9f4f4;stroke-miterlimit:10"/><path d="M205.29,44.48a5.51,5.51,0,0,1,4.55,3.22,4.54,4.54,0,0,1-1,5.24c-3.12,3.15-6.27,6.27-9.4,9.41s-6.4,6.41-9.61,9.6c-2.26,2.25-5.1,2.37-7.11.32s-1.81-4.81.37-7C189.33,59,195.58,52.7,201.92,46.5A16.19,16.19,0,0,1,205.29,44.48Z" transform="translate(-8.85 -11.52)" style="fill:none;stroke:#f9f4f4;stroke-miterlimit:10"/><path d="M186.27,183.54a13.87,13.87,0,0,1,3.18,1.8c6.47,6.34,12.87,12.76,19.26,19.18a4.73,4.73,0,0,1,.19,6.8,4.67,4.67,0,0,1-6.9-.11q-9.63-9.59-19.22-19.22a4.54,4.54,0,0,1-1-5.24A5.53,5.53,0,0,1,186.27,183.54Z" transform="translate(-8.85 -11.52)" style="fill:none;stroke:#f9f4f4;stroke-miterlimit:10"/><path d="M224.64,133.5c-4.63,0-9.26,0-13.89,0a4.51,4.51,0,0,1-4.41-3.39,4.46,4.46,0,0,1,1.79-5.13,5.42,5.42,0,0,1,2.71-.86q13.74-.09,27.48,0a4.7,4.7,0,1,1-.08,9.4C233.71,133.52,229.17,133.5,224.64,133.5Z" transform="translate(-8.85 -11.52)" style="fill:none;stroke:#f9f4f4;stroke-miterlimit:10"/><path d="M27.85,133.5c-4.63,0-9.26,0-13.89,0a4.68,4.68,0,0,1-4.54-3.81,4.74,4.74,0,0,1,3-5.28,4.14,4.14,0,0,1,1.42-.29c9.35,0,18.7,0,28.06,0a4.43,4.43,0,0,1,4.37,3.94A4.63,4.63,0,0,1,43,133.28a6.84,6.84,0,0,1-1.87.22Z" transform="translate(-8.85 -11.52)" style="fill:none;stroke:#f9f4f4;stroke-miterlimit:10"/><path d="M126.32,288.41h9.79c3,0,5.11,1.9,5.2,4.59a4.75,4.75,0,0,1-4.79,4.86c-6.87.11-13.74.12-20.61,0a4.52,4.52,0,0,1-4.68-5c.09-2.62,2.19-4.43,5.15-4.43Z" transform="translate(-8.85 -11.52)" style="fill:none;stroke:#f9f4f4;stroke-miterlimit:10"/></svg>